<svg width="40" height="40" viewBox="0 0 40 40" fill="none" xmlns="http://www.w3.org/2000/svg">
<path d="M20 0C8.97133 0 0 8.97133 0 20C0 31.0287 8.97133 40 20 40C31.0287 40 40 31.0271 40 20C40 8.97289 31.0287 0 20 0ZM20 36.9016C10.6816 36.9016 3.09836 29.3199 3.09836 20C3.09836 10.6801 10.6816 3.09836 20 3.09836C29.3199 3.09836 36.9016 10.6801 36.9016 20C36.9016 29.3199 29.3184 36.9016 20 36.9016Z" fill="white"/>
<path d="M28.8458 22.1379L21.0999 14.392C20.4957 13.7909 19.5197 13.7909 18.9155 14.392L11.1696 22.1379C10.6723 22.7173 10.6723 23.574 11.1696 24.1534C11.7258 24.8025 12.7048 24.8784 13.354 24.3222L20 17.6762L26.6615 24.3223C27.2657 24.9234 28.2416 24.9234 28.8458 24.3223C29.4469 23.718 29.4469 22.742 28.8458 22.1379Z" fill="white"/>
</svg>
