<svg width="30" height="29" viewBox="0 0 30 29" fill="none" xmlns="http://www.w3.org/2000/svg">
<path d="M15 0C6.7125 0 0 6.6 0 14.74C0 21.2538 4.2975 26.7775 10.2562 28.725C11.0062 28.8638 11.2812 28.4075 11.2812 28.0163C11.2812 27.6663 11.2688 26.7388 11.2625 25.51C7.09 26.3988 6.21 23.5325 6.21 23.5325C5.5275 21.8313 4.54125 21.3763 4.54125 21.3763C3.1825 20.4625 4.64625 20.4813 4.64625 20.4813C6.1525 20.5838 6.94375 22 6.94375 22C8.28125 24.2538 10.455 23.6025 11.3125 23.2263C11.4475 22.2725 11.8338 21.6238 12.2625 21.255C8.93125 20.8863 5.43 19.6188 5.43 13.9713C5.43 12.3625 6.01125 11.0475 6.97375 10.0163C6.805 9.64375 6.29875 8.145 7.105 6.115C7.105 6.115 8.36125 5.72 11.23 7.62625C12.43 7.29875 13.705 7.13625 14.98 7.12875C16.255 7.13625 17.53 7.29875 18.73 7.62625C21.58 5.72 22.8362 6.115 22.8362 6.115C23.6425 8.145 23.1362 9.64375 22.9862 10.0163C23.9425 11.0475 24.5237 12.3625 24.5237 13.9713C24.5237 19.6338 21.0175 20.88 17.68 21.2425C18.205 21.685 18.6925 22.5888 18.6925 23.97C18.6925 25.9425 18.6738 27.5275 18.6738 28.0063C18.6738 28.3925 18.9362 28.8538 19.705 28.7063C25.7063 26.7713 30 21.2438 30 14.74C30 6.6 23.2837 0 15 0V0Z" fill="#212121"/>
</svg>
