<svg width="30" height="31" viewBox="0 0 30 31" fill="none" xmlns="http://www.w3.org/2000/svg">
<path d="M29.9238 8.8218C29.8535 7.22747 29.5956 6.13139 29.2263 5.18161C28.8453 4.17346 28.2591 3.27085 27.4912 2.52051C26.7408 1.7585 25.8323 1.16638 24.8358 0.791324C23.8805 0.421994 22.7902 0.164172 21.1958 0.0938781C19.5896 0.0176308 19.0797 0 15.0058 0C10.932 0 10.4221 0.0176308 8.82179 0.0879249C7.22747 0.158219 6.13138 0.416269 5.18184 0.785371C4.17345 1.16638 3.27085 1.75254 2.52051 2.52051C1.7585 3.27085 1.16661 4.17941 0.791324 5.17589C0.421993 6.13139 0.164172 7.22152 0.0938781 8.81584C0.0176307 10.4221 0 10.932 0 15.0058C0 19.0797 0.0176307 19.5896 0.0879248 21.1899C0.158219 22.7842 0.416269 23.8803 0.785599 24.8301C1.16661 25.8382 1.7585 26.7408 2.52051 27.4912C3.27085 28.2532 4.17941 28.8453 5.17589 29.2204C6.13138 29.5897 7.22151 29.8475 8.81607 29.9178C10.4161 29.9883 10.9263 30.0057 15.0001 30.0057C19.074 30.0057 19.5839 29.9883 21.1842 29.9178C22.7785 29.8475 23.8746 29.5897 24.8241 29.2204C26.8407 28.4407 28.435 26.8464 29.2146 24.8301C29.5837 23.8746 29.8418 22.7842 29.9121 21.1899C29.9824 19.5896 30 19.0797 30 15.0058C30 10.932 29.994 10.4221 29.9238 8.8218ZM27.2217 21.0727C27.1571 22.5381 26.911 23.3294 26.7058 23.857C26.2016 25.1641 25.1641 26.2016 23.8569 26.7058C23.3294 26.911 22.5323 27.1571 21.0727 27.2215C19.49 27.292 19.0153 27.3094 15.0118 27.3094C11.0082 27.3094 10.5276 27.292 8.9507 27.2215C7.48529 27.1571 6.69396 26.911 6.16642 26.7058C5.51591 26.4654 4.92379 26.0844 4.44318 25.5861C3.94494 25.0996 3.56393 24.5134 3.32351 23.8629C3.11835 23.3354 2.87221 22.5381 2.80787 21.0786C2.73735 19.496 2.71995 19.0211 2.71995 15.0175C2.71995 11.014 2.73735 10.5334 2.80787 8.95666C2.87221 7.49125 3.11835 6.69992 3.32351 6.17237C3.56393 5.52164 3.94494 4.92975 4.44913 4.44891C4.93547 3.95067 5.52163 3.56966 6.17237 3.32947C6.69992 3.12431 7.49719 2.87817 8.95666 2.8136C10.5393 2.7433 11.0142 2.72567 15.0175 2.72567C19.027 2.72567 19.5017 2.7433 21.0786 2.8136C22.544 2.87817 23.3353 3.12431 23.8629 3.32947C24.5134 3.56966 25.1055 3.95067 25.5861 4.44891C26.0844 4.93547 26.4654 5.52164 26.7058 6.17237C26.911 6.69992 27.1571 7.49697 27.2217 8.95666C27.292 10.5393 27.3096 11.014 27.3096 15.0175C27.3096 19.0211 27.292 19.49 27.2217 21.0727Z" fill="black"/>
<path d="M15.0058 7.29776C10.7504 7.29776 7.29773 10.7502 7.29773 15.0058C7.29773 19.2615 10.7504 22.7139 15.0058 22.7139C19.2615 22.7139 22.7139 19.2615 22.7139 15.0058C22.7139 10.7502 19.2615 7.29776 15.0058 7.29776ZM15.0058 20.0059C12.2451 20.0059 10.0058 17.7668 10.0058 15.0058C10.0058 12.2449 12.2451 10.0058 15.0058 10.0058C17.7667 10.0058 20.0059 12.2449 20.0059 15.0058C20.0059 17.7668 17.7667 20.0059 15.0058 20.0059V20.0059Z" fill="black"/>
<path d="M24.8183 6.993C24.8183 7.98673 24.0126 8.79248 23.0186 8.79248C22.0249 8.79248 21.2191 7.98673 21.2191 6.993C21.2191 5.99903 22.0249 5.19351 23.0186 5.19351C24.0126 5.19351 24.8183 5.99903 24.8183 6.993V6.993Z" fill="black"/>
</svg>
